# xmcd
#
# Track frame offsets: 
#        150
#        21057
#        38175
#        54001
#        73280
#        92526
#        104104
#        121170
#        137563
#        152528
#
# Disc length: 2369 seconds
#
# Revision: 2
# Processed by: cddbd v1.5.2PL0 Copyright (c) Steve Scherf et al.
# Submitted via: ExactAudioCopy v1.3
#
DISCID=7c093f0a
DTITLE=Tuure Kilpel‰inen ja Kaihon Karavaani - Surusilm‰inen kauneus
DYEAR=2016
DGENRE=Pop
TTITLE0=Hengit‰n
TTITLE1=Kesken j‰‰
TTITLE2=Autiosaari
TTITLE3=Ikuinen ihastus
TTITLE4=Henki puolellas on
TTITLE5=Katu rakkauden
TTITLE6=Surusilm‰inen kauneus
TTITLE7=Mis min buutsit on
TTITLE8=Sin‰ yˆn‰ kun en saanut unta
TTITLE9=T‰n‰‰n aiotaan el‰‰
EXTD=
EXTT0=
EXTT1=
EXTT2=
EXTT3=
EXTT4=
EXTT5=
EXTT6=
EXTT7=
EXTT8=
EXTT9=
PLAYORDER=
